<?xml version="1.0" encoding="utf-8"?>
<svg width="900" height="900" viewBox="0 0 900 900" fill="none" xmlns="http://www.w3.org/2000/svg">
  <defs>
    <clipPath id="clip_path_1">
      <rect width="900" height="900" rx="45" />
    </clipPath>
  </defs>
  <g clip-path="url(#clip_path_1)">
    <path d="M855 0C879.856 0 900 20.1438 900 45L900 855C900 879.856 879.856 900 855 900L45 900C20.1438 900 0 879.856 0 855L0 45C0 20.1438 20.1438 0 45 0L855 0Z" fill="#000000" />
    <g transform="translate(-985.5 369)">
      <path d="M432.995 395.437L406.661 395.869L491.706 105.767L577.615 105.767L476.165 429.542L372.125 429.542L274.13 148.073L308.234 148.073L210.67 429.542L106.198 429.542L4.7487 105.767L91.0887 105.767L176.134 395.437L150.232 395.006L248.228 105.767L334.568 105.767L432.995 395.437ZM693.556 436.449Q649.523 436.449 614.771 420.044Q580.019 403.64 560.161 374.284Q540.303 344.928 540.303 305.644Q540.303 267.222 559.298 238.298Q578.292 209.375 611.749 192.97Q645.206 176.565 687.513 176.565Q730.682 176.565 761.765 195.56Q792.847 214.555 809.684 249.091Q826.52 283.627 826.52 330.251L604.626 330.251L604.626 279.742L782.487 279.742L753.563 297.873Q752.268 277.583 743.849 263.553Q735.431 249.523 721.617 241.968Q707.802 234.413 688.808 234.413Q668.086 234.413 652.977 242.615Q637.867 250.818 629.449 265.496Q621.031 280.173 621.031 299.6Q621.031 324.207 632.039 341.475Q643.047 358.743 663.985 367.808Q684.922 376.874 715.141 376.874Q742.77 376.874 770.399 369.319Q798.028 361.765 820.044 347.95L820.044 400.186Q795.006 417.454 762.844 426.951Q730.682 436.449 693.556 436.449ZM986.063 436.449Q942.03 436.449 907.278 420.044Q872.526 403.64 852.668 374.284Q832.81 344.928 832.81 305.644Q832.81 267.222 851.805 238.298Q870.799 209.375 904.256 192.97Q937.713 176.565 980.02 176.565Q1023.19 176.565 1054.27 195.56Q1085.35 214.555 1102.19 249.091Q1119.03 283.627 1119.03 330.251L897.133 330.251L897.133 279.742L1074.99 279.742L1046.07 297.873Q1044.77 277.583 1036.36 263.553Q1027.94 249.523 1014.12 241.968Q1000.31 234.413 981.315 234.413Q960.593 234.413 945.484 242.615Q930.374 250.818 921.956 265.496Q913.538 280.173 913.538 299.6Q913.538 324.207 924.546 341.475Q935.554 358.743 956.492 367.808Q977.429 376.874 1007.65 376.874Q1035.28 376.874 1062.91 369.319Q1090.53 361.765 1112.55 347.95L1112.55 400.186Q1087.51 417.454 1055.35 426.951Q1023.19 436.449 986.063 436.449ZM1137.4 97.1325L1217.27 97.1325L1217.27 258.157L1206.48 279.31L1206.48 337.158L1217.27 357.879L1217.27 429.542L1137.4 429.542L1137.4 97.1325ZM1190.5 306.507Q1196.98 266.791 1215.11 237.867Q1233.24 208.943 1260.87 192.754Q1288.5 176.565 1323.04 176.565Q1359.3 176.565 1386.71 192.97Q1414.12 209.375 1429.67 238.514Q1445.21 267.654 1445.21 306.507Q1445.21 345.36 1429.67 374.5Q1414.12 403.64 1386.71 420.044Q1359.3 436.449 1323.04 436.449Q1288.5 436.449 1260.87 420.26Q1233.24 404.071 1215.11 374.931Q1196.98 345.792 1190.5 306.507ZM1364.05 306.507Q1364.05 286.649 1355.84 271.323Q1347.64 255.998 1333.18 247.148Q1318.72 238.298 1299.72 238.298Q1280.73 238.298 1263.68 247.148Q1246.62 255.998 1233.89 271.323Q1221.15 286.649 1214.25 306.507Q1221.15 326.365 1233.89 341.691Q1246.62 357.016 1263.68 365.866Q1280.73 374.716 1299.72 374.716Q1318.72 374.716 1333.18 365.866Q1347.64 357.016 1355.84 341.691Q1364.05 326.365 1364.05 306.507ZM1492.94 433.859Q1479.99 433.859 1469.41 427.815Q1458.84 421.771 1452.79 411.194Q1446.75 400.618 1446.75 387.667Q1446.75 374.716 1452.79 364.355Q1458.84 353.994 1469.41 347.734Q1479.99 341.475 1492.94 341.475Q1505.89 341.475 1516.25 347.734Q1526.61 353.994 1532.66 364.355Q1538.7 374.716 1538.7 387.667Q1538.7 400.618 1532.66 411.194Q1526.61 421.771 1516.25 427.815Q1505.89 433.859 1492.94 433.859Z" transform="translate(0 -1.204)" fill="#FFFFFF" />
      <path d="M214.555 285.354L214.555 236.572L371.694 429.542L271.108 429.542L163.614 290.966L202.467 290.966L94.5423 429.542L-4.317 429.542L153.685 237.003L153.685 284.922L5.6121 105.767L107.062 105.767L205.058 230.96L165.341 230.96L262.042 105.767L361.765 105.767L214.555 285.354Z" transform="translate(1527.722 -1.204)" fill="#F17C51" />
    </g>
    <g transform="translate(-58.5 -67.5)">
      <path d="M432.995 395.437L406.661 395.869L491.706 105.767L577.615 105.767L476.165 429.542L372.125 429.542L274.13 148.073L308.234 148.073L210.67 429.542L106.198 429.542L4.7487 105.767L91.0887 105.767L176.134 395.437L150.232 395.006L248.228 105.767L334.568 105.767L432.995 395.437ZM688.556 436.449Q644.523 436.449 609.771 420.044Q575.019 403.64 555.161 374.284Q535.303 344.928 535.303 305.644Q535.303 267.222 554.298 238.298Q573.292 209.375 606.749 192.97Q640.206 176.565 682.513 176.565Q725.682 176.565 756.765 195.56Q787.847 214.555 804.684 249.091Q821.52 283.627 821.52 330.251L599.626 330.251L599.626 279.742L777.487 279.742L748.563 297.873Q747.268 277.583 738.849 263.553Q730.431 249.523 716.617 241.968Q702.802 234.413 683.808 234.413Q663.086 234.413 647.977 242.615Q632.867 250.818 624.449 265.496Q616.031 280.173 616.031 299.6Q616.031 324.207 627.039 341.475Q638.047 358.743 658.985 367.808Q679.922 376.874 710.141 376.874Q737.77 376.874 765.399 369.319Q793.028 361.765 815.044 347.95L815.044 400.186Q790.006 417.454 757.844 426.951Q725.682 436.449 688.556 436.449ZM976.063 436.449Q932.03 436.449 897.278 420.044Q862.526 403.64 842.668 374.284Q822.81 344.928 822.81 305.644Q822.81 267.222 841.805 238.298Q860.799 209.375 894.256 192.97Q927.713 176.565 970.02 176.565Q1013.19 176.565 1044.27 195.56Q1075.35 214.555 1092.19 249.091Q1109.03 283.627 1109.03 330.251L887.133 330.251L887.133 279.742L1064.99 279.742L1036.07 297.873Q1034.77 277.583 1026.36 263.553Q1017.94 249.523 1004.12 241.968Q990.309 234.413 971.315 234.413Q950.593 234.413 935.484 242.615Q920.374 250.818 911.956 265.496Q903.538 280.173 903.538 299.6Q903.538 324.207 914.546 341.475Q925.554 358.743 946.492 367.808Q967.429 376.874 997.648 376.874Q1025.28 376.874 1052.91 369.319Q1080.53 361.765 1102.55 347.95L1102.55 400.186Q1077.51 417.454 1045.35 426.951Q1013.19 436.449 976.063 436.449ZM1122.4 97.1325L1202.27 97.1325L1202.27 258.157L1191.48 279.31L1191.48 337.158L1202.27 357.879L1202.27 429.542L1122.4 429.542L1122.4 97.1325ZM1175.5 306.507Q1181.98 266.791 1200.11 237.867Q1218.24 208.943 1245.87 192.754Q1273.5 176.565 1308.04 176.565Q1344.3 176.565 1371.71 192.97Q1399.12 209.375 1414.67 238.514Q1430.21 267.654 1430.21 306.507Q1430.21 345.36 1414.67 374.5Q1399.12 403.64 1371.71 420.044Q1344.3 436.449 1308.04 436.449Q1273.5 436.449 1245.87 420.26Q1218.24 404.071 1200.11 374.931Q1181.98 345.792 1175.5 306.507ZM1349.05 306.507Q1349.05 286.649 1340.84 271.323Q1332.64 255.998 1318.18 247.148Q1303.72 238.298 1284.72 238.298Q1265.73 238.298 1248.68 247.148Q1231.62 255.998 1218.89 271.323Q1206.15 286.649 1199.25 306.507Q1206.15 326.365 1218.89 341.691Q1231.62 357.016 1248.68 365.866Q1265.73 374.716 1284.72 374.716Q1303.72 374.716 1318.18 365.866Q1332.64 357.016 1340.84 341.691Q1349.05 326.365 1349.05 306.507ZM1472.94 433.859Q1459.99 433.859 1449.41 427.815Q1438.84 421.771 1432.79 411.194Q1426.75 400.618 1426.75 387.667Q1426.75 374.716 1432.79 364.355Q1438.84 353.994 1449.41 347.734Q1459.99 341.475 1472.94 341.475Q1485.89 341.475 1496.25 347.734Q1506.61 353.994 1512.66 364.355Q1518.7 374.716 1518.7 387.667Q1518.7 400.618 1512.66 411.194Q1506.61 421.771 1496.25 427.815Q1485.89 433.859 1472.94 433.859Z" transform="translate(0 33.496)" fill="#FFFFFF" />
      <path d="M214.555 285.354L214.555 236.572L371.694 429.542L271.108 429.542L163.614 290.966L202.467 290.966L94.5423 429.542L-4.317 429.542L153.685 237.003L153.685 284.922L5.6121 105.767L107.062 105.767L205.058 230.96L165.341 230.96L262.042 105.767L361.765 105.767L214.555 285.354Z" transform="translate(1502.722 33.496)" fill="#F17C51" />
    </g>
  </g>
</svg>