<?xml version="1.0" encoding="utf-8"?>
<svg width="165" height="117" viewBox="0 0 165 117" fill="none" xmlns="http://www.w3.org/2000/svg">
  <g>
    <g>
      <path d="M22.9121 19.45L29.6807 19.45L49.5197 73.91L43.7236 73.91L39.4835 62.24L13.1482 62.24L8.9081 73.91L3.112 73.91L22.9121 19.45ZM15.1321 56.794L37.4607 56.794L26.2964 26.1408L15.1321 56.794ZM54.794 73.91L54.794 19.45L60.7068 19.45L89.4539 64.0683L89.4539 19.45L94.8999 19.45L94.8999 73.91L89.026 73.91L60.24 29.2917L60.24 73.91L54.794 73.91ZM103.403 73.91L103.403 19.45L108.849 19.45L108.849 73.91L103.403 73.91Z" transform="translate(0 0.32)" fill="#FFFFFF" />
      <path d="M2.334 73.91L22.2897 46.5244L2.5674 19.45L9.2971 19.45L25.6351 41.9342L42.012 19.45L48.7417 19.45L29.0583 46.5244L48.9751 73.91L42.2065 73.91L25.6351 51.1924L9.1415 73.91L2.334 73.91Z" transform="translate(112.684 0.32)" fill="#FF6000" />
    </g>
    <path d="M7.648 16.16Q6.448 16.16 5.432 15.92Q4.416 15.68 3.576 15.2Q2.736 14.72 2.048 13.984L3.136 12.544Q4.176 13.616 5.256 14.112Q6.336 14.608 7.664 14.608Q8.496 14.608 9.264 14.408Q10.032 14.208 10.528 13.8Q11.024 13.392 11.024 12.768Q11.024 12.368 10.752 12.112Q10.48 11.856 10.04 11.696Q9.6 11.536 9.088 11.44Q8.576 11.344 8.104 11.296Q7.632 11.248 7.312 11.216Q6.24 11.072 5.368 10.824Q4.496 10.576 3.88 10.192Q3.264 9.808 2.936 9.248Q2.608 8.688 2.608 7.952Q2.608 7.168 2.984 6.552Q3.36 5.936 4.04 5.512Q4.72 5.088 5.624 4.864Q6.528 4.64 7.584 4.64Q8.704 4.64 9.632 4.864Q10.56 5.088 11.288 5.528Q12.016 5.968 12.496 6.608L11.344 7.872Q10.896 7.328 10.304 6.952Q9.712 6.576 9.016 6.384Q8.32 6.192 7.536 6.192Q6.672 6.192 5.984 6.384Q5.296 6.576 4.896 6.92Q4.496 7.264 4.496 7.76Q4.496 8.192 4.744 8.496Q4.992 8.8 5.44 9Q5.888 9.2 6.52 9.328Q7.152 9.456 7.92 9.552Q8.88 9.664 9.776 9.84Q10.672 10.016 11.376 10.328Q12.08 10.64 12.496 11.168Q12.912 11.696 12.912 12.544Q12.912 13.632 12.256 14.448Q11.6 15.264 10.424 15.712Q9.248 16.16 7.648 16.16ZM29.326 16L29.326 6.464L25.07 6.464L25.07 4.8L35.406 4.8L35.406 6.464L31.054 6.464L31.054 16L29.326 16ZM48.428 16L48.428 4.8L54.972 4.8Q55.964 4.8 56.788 5.256Q57.612 5.712 58.108 6.496Q58.604 7.28 58.604 8.24Q58.604 9.248 58.06 10.072Q57.516 10.896 56.62 11.384Q55.724 11.872 54.652 11.872L50.156 11.872L50.156 16L48.428 16ZM57.1 16L53.292 10.944L55.132 10.544L59.26 16.016L57.1 16ZM50.156 10.208L54.492 10.208Q55.1 10.208 55.62 9.936Q56.14 9.664 56.452 9.216Q56.764 8.768 56.764 8.24Q56.764 7.744 56.452 7.344Q56.14 6.944 55.62 6.704Q55.1 6.464 54.492 6.464L50.156 6.464L50.156 10.208ZM73.114 16L73.114 4.8L82.41 4.8L82.41 6.464L74.842 6.464L74.842 14.336L82.41 14.336L82.41 16L73.114 16ZM74.058 11.088L74.058 9.424L81.53 9.424L81.53 11.088L74.058 11.088ZM94.952 16L100.424 4.8L102.44 4.8L107.88 16L105.976 16L102.216 8.288Q102.072 7.984 101.928 7.696Q101.784 7.408 101.648 7.12Q101.512 6.832 101.384 6.512Q101.256 6.192 101.128 5.808L101.64 5.792Q101.496 6.176 101.36 6.512Q101.224 6.848 101.08 7.152Q100.936 7.456 100.792 7.752Q100.648 8.048 100.504 8.352L96.776 16L94.952 16ZM97.336 13.376L98.024 11.712L104.664 11.712L104.936 13.376L97.336 13.376ZM120.774 16L120.774 4.8L122.47 4.8L127.574 11.12L126.966 11.12L132.07 4.8L133.766 4.8L133.766 16L132.038 16L132.038 11.248Q132.038 9.92 132.102 8.752Q132.166 7.584 132.358 6.368L132.534 7.024L127.798 12.784L126.742 12.784L122.006 7.024L122.182 6.368Q122.374 7.584 122.438 8.752Q122.502 9.92 122.502 11.248L122.502 16L120.774 16Z" transform="translate(13 78)" fill="#111111" />
  </g>
</svg>